<?xml version="1.0" standalone="no"?>
<!DOCTYPE svg PUBLIC "-//W3C//DTD SVG 20010904//EN"
 "http://www.w3.org/TR/2001/REC-SVG-20010904/DTD/svg10.dtd">
<svg version="1.0" xmlns="http://www.w3.org/2000/svg"
 width="200.000000pt" height="200.000000pt" viewBox="0 0 200.000000 200.000000"
 preserveAspectRatio="xMidYMid meet">
<metadata>
Created by potrace 1.14, written by Peter Selinger 2001-2017
</metadata>
<g transform="translate(0.000000,200.000000) scale(0.100000,-0.100000)"
fill="#000000" stroke="none">
<path d="M47 1473 c-4 -3 -7 -222 -7 -485 l0 -478 975 0 975 0 -2 483 -3 482
-966 3 c-531 1 -969 -1 -972 -5z m1863 -483 l0 -410 -895 0 -895 0 0 410 0
410 895 0 895 0 0 -410z"/>
<path d="M276 1238 c-13 -19 -16 -62 -16 -264 0 -133 3 -249 6 -258 9 -23 99
-23 108 0 3 9 6 104 6 212 0 110 4 192 9 187 4 -6 28 -71 51 -145 24 -74 46
-139 49 -145 4 -5 15 -36 26 -68 l19 -58 54 3 c52 3 56 5 64 33 5 17 14 39 18
50 5 11 19 49 31 85 28 87 42 120 51 120 5 0 8 9 8 21 0 27 30 118 41 125 5 3
9 -91 9 -215 l0 -221 50 0 50 0 0 268 c0 195 -3 271 -12 280 -15 15 -138 16
-138 2 0 -5 -7 -10 -15 -10 -9 0 -18 -8 -21 -17 -3 -10 -10 -27 -15 -38 -4
-11 -15 -38 -23 -60 -19 -53 -71 -194 -83 -224 -6 -16 -12 -20 -17 -13 -9 15
-73 192 -88 242 -5 19 -14 39 -19 45 -5 5 -9 17 -9 27 0 37 -39 58 -111 58
-59 0 -70 -3 -83 -22z"/>
<path d="M1041 1246 c-8 -9 -11 -91 -9 -277 l3 -264 55 0 55 0 3 93 3 92 48 0
c79 0 110 10 157 54 51 47 67 103 53 183 -10 53 -62 113 -98 113 -11 0 -23 5
-26 10 -10 16 -230 13 -244 -4z m224 -101 c19 -18 25 -35 25 -70 0 -64 -31
-95 -95 -95 l-45 0 0 95 0 95 45 0 c35 0 52 -6 70 -25z"/>
<path d="M1517 1253 c-4 -3 -7 -129 -7 -280 l0 -273 150 0 150 0 0 45 0 45
-95 0 -95 0 0 223 c0 160 -3 226 -12 235 -13 13 -80 17 -91 5z"/>
</g>
</svg>
